{
    "asset" : {
        "generator" : "Khronos glTF Blender I/O v1.5.17",
        "version" : "2.0"
    },
    "scene" : 0,
    "scenes" : [
        {
            "name" : "Scene",
            "nodes" : [
                0
            ]
        }
    ],
    "nodes" : [
        {
            "mesh" : 0,
            "name" : "Edge Floor plan _birdseye",
            "rotation" : [
                0.7071068286895752,
                0,
                0,
                0.7071067094802856
            ],
            "translation" : [
                187.54759216308594,
                -9.499954223632812,
                -278.91949462890625
            ]
        }
    ],
    "materials" : [
        {
            "doubleSided" : true,
            "name" : "FrontColor",
            "pbrMetallicRoughness" : {
                "metallicFactor" : 0
            }
        },
        {
            "doubleSided" : true,
            "name" : "Color_C08",
            "pbrMetallicRoughness" : {
                "baseColorFactor" : [
                    0.4000000059604645,
                    0.20000000298023224,
                    0,
                    1
                ],
                "metallicFactor" : 0
            }
        },
        {
            "doubleSided" : true,
            "name" : "Chris_Hair",
            "pbrMetallicRoughness" : {
                "baseColorFactor" : [
                    0.2784309983253479,
                    0.2980389893054962,
                    0.2901960015296936,
                    1
                ],
                "metallicFactor" : 0
            }
        },
        {
            "doubleSided" : true,
            "name" : "_2",
            "pbrMetallicRoughness" : {
                "baseColorFactor" : [
                    0.3921569883823395,
                    0.5843139886856079,
                    0.9294120073318481,
                    0.25
                ],
                "metallicFactor" : 0
            }
        },
        {
            "doubleSided" : true,
            "name" : "Color_A07",
            "pbrMetallicRoughness" : {
                "baseColorFactor" : [
                    0.6000000238418579,
                    0,
                    0,
                    1
                ],
                "metallicFactor" : 0
            }
        },
        {
            "doubleSided" : true,
            "name" : "Aluminum",
            "pbrMetallicRoughness" : {
                "metallicFactor" : 0
            }
        },
        {
            "doubleSided" : true,
            "name" : "Walnut_Vertical",
            "pbrMetallicRoughness" : {
                "metallicFactor" : 0
            }
        },
        {
            "doubleSided" : true,
            "name" : "Walnut_Long",
            "pbrMetallicRoughness" : {
                "metallicFactor" : 0
            }
        },
        {
            "doubleSided" : true,
            "name" : "Steel_Brushed_5cm",
            "pbrMetallicRoughness" : {
                "metallicFactor" : 0
            }
        }
    ],
    "meshes" : [
        {
            "name" : "Edge Floor plan _birdseye",
            "primitives" : [
                {
                    "attributes" : {
                        "POSITION" : 0,
                        "NORMAL" : 1,
                        "TEXCOORD_0" : 2
                    },
                    "indices" : 3,
                    "material" : 0
                },
                {
                    "attributes" : {
                        "POSITION" : 4,
                        "NORMAL" : 5,
                        "TEXCOORD_0" : 6
                    },
                    "indices" : 7,
                    "material" : 1
                },
                {
                    "attributes" : {
                        "POSITION" : 8,
                        "NORMAL" : 9,
                        "TEXCOORD_0" : 10
                    },
                    "indices" : 11,
                    "material" : 2
                },
                {
                    "attributes" : {
                        "POSITION" : 12,
                        "NORMAL" : 13,
                        "TEXCOORD_0" : 14
                    },
                    "indices" : 15,
                    "material" : 3
                },
                {
                    "attributes" : {
                        "POSITION" : 16,
                        "NORMAL" : 17,
                        "TEXCOORD_0" : 18
                    },
                    "indices" : 19,
                    "material" : 4
                },
                {
                    "attributes" : {
                        "POSITION" : 20,
                        "NORMAL" : 21,
                        "TEXCOORD_0" : 22
                    },
                    "indices" : 23,
                    "material" : 5
                },
                {
                    "attributes" : {
                        "POSITION" : 24,
                        "NORMAL" : 25,
                        "TEXCOORD_0" : 26
                    },
                    "indices" : 27,
                    "material" : 6
                },
                {
                    "attributes" : {
                        "POSITION" : 28,
                        "NORMAL" : 29,
                        "TEXCOORD_0" : 30
                    },
                    "indices" : 31,
                    "material" : 7
                },
                {
                    "attributes" : {
                        "POSITION" : 32,
                        "NORMAL" : 33,
                        "TEXCOORD_0" : 34
                    },
                    "indices" : 35,
                    "material" : 8
                }
            ]
        }
    ],
    "accessors" : [
        {
            "bufferView" : 0,
            "componentType" : 5126,
            "count" : 13795,
            "max" : [
                169.43739318847656,
                147.0625,
                0
            ],
            "min" : [
                -169.43739318847656,
                -147.0625,
                -108.75
            ],
            "type" : "VEC3"
        },
        {
            "bufferView" : 1,
            "componentType" : 5126,
            "count" : 13795,
            "type" : "VEC3"
        },
        {
            "bufferView" : 2,
            "componentType" : 5126,
            "count" : 13795,
            "type" : "VEC2"
        },
        {
            "bufferView" : 3,
            "componentType" : 5123,
            "count" : 22557,
            "type" : "SCALAR"
        },
        {
            "bufferView" : 4,
            "componentType" : 5126,
            "count" : 247,
            "max" : [
                146.1254119873047,
                147.0625,
                -9.5
            ],
            "min" : [
                -48.687591552734375,
                142.8125,
                -108.75
            ],
            "type" : "VEC3"
        },
        {
            "bufferView" : 5,
            "componentType" : 5126,
            "count" : 247,
            "type" : "VEC3"
        },
        {
            "bufferView" : 6,
            "componentType" : 5126,
            "count" : 247,
            "type" : "VEC2"
        },
        {
            "bufferView" : 7,
            "componentType" : 5123,
            "count" : 594,
            "type" : "SCALAR"
        },
        {
            "bufferView" : 8,
            "componentType" : 5126,
            "count" : 25,
            "max" : [
                144.1254119873047,
                147.0625,
                -9.5
            ],
            "min" : [
                -169.43739318847656,
                -135.6875,
                -9.5
            ],
            "type" : "VEC3"
        },
        {
            "bufferView" : 9,
            "componentType" : 5126,
            "count" : 25,
            "type" : "VEC3"
        },
        {
            "bufferView" : 10,
            "componentType" : 5126,
            "count" : 25,
            "type" : "VEC2"
        },
        {
            "bufferView" : 11,
            "componentType" : 5123,
            "count" : 69,
            "type" : "SCALAR"
        },
        {
            "bufferView" : 12,
            "componentType" : 5126,
            "count" : 32,
            "max" : [
                143.7504119873047,
                144.99949645996094,
                -42.375
            ],
            "min" : [
                -15.812591552734375,
                144.87449645996094,
                -106.25
            ],
            "type" : "VEC3"
        },
        {
            "bufferView" : 13,
            "componentType" : 5126,
            "count" : 32,
            "type" : "VEC3"
        },
        {
            "bufferView" : 14,
            "componentType" : 5126,
            "count" : 32,
            "type" : "VEC2"
        },
        {
            "bufferView" : 15,
            "componentType" : 5123,
            "count" : 48,
            "type" : "SCALAR"
        },
        {
            "bufferView" : 16,
            "componentType" : 5126,
            "count" : 20,
            "max" : [
                144.1254119873047,
                -98.1875,
                -9.5
            ],
            "min" : [
                -164.68739318847656,
                -135.6875,
                -108.75
            ],
            "type" : "VEC3"
        },
        {
            "bufferView" : 17,
            "componentType" : 5126,
            "count" : 20,
            "type" : "VEC3"
        },
        {
            "bufferView" : 18,
            "componentType" : 5126,
            "count" : 20,
            "type" : "VEC2"
        },
        {
            "bufferView" : 19,
            "componentType" : 5123,
            "count" : 30,
            "type" : "SCALAR"
        },
        {
            "bufferView" : 20,
            "componentType" : 5126,
            "count" : 18643,
            "max" : [
                -64.72859191894531,
                77.03450012207031,
                -10
            ],
            "min" : [
                -66.79159545898438,
                11.40948486328125,
                -101
            ],
            "type" : "VEC3"
        },
        {
            "bufferView" : 21,
            "componentType" : 5126,
            "count" : 18643,
            "type" : "VEC3"
        },
        {
            "bufferView" : 22,
            "componentType" : 5126,
            "count" : 18643,
            "type" : "VEC2"
        },
        {
            "bufferView" : 23,
            "componentType" : 5123,
            "count" : 38886,
            "type" : "SCALAR"
        },
        {
            "bufferView" : 24,
            "componentType" : 5126,
            "count" : 572,
            "max" : [
                -56.16358947753906,
                76.47149658203125,
                -9.5
            ],
            "min" : [
                -66.16558837890625,
                11.97149658203125,
                -99
            ],
            "type" : "VEC3"
        },
        {
            "bufferView" : 25,
            "componentType" : 5126,
            "count" : 572,
            "type" : "VEC3"
        },
        {
            "bufferView" : 26,
            "componentType" : 5126,
            "count" : 572,
            "type" : "VEC2"
        },
        {
            "bufferView" : 27,
            "componentType" : 5123,
            "count" : 1434,
            "type" : "SCALAR"
        },
        {
            "bufferView" : 28,
            "componentType" : 5126,
            "count" : 1545,
            "max" : [
                -56.16358947753906,
                76.47149658203125,
                -9.5
            ],
            "min" : [
                -66.16558837890625,
                11.47149658203125,
                -99
            ],
            "type" : "VEC3"
        },
        {
            "bufferView" : 29,
            "componentType" : 5126,
            "count" : 1545,
            "type" : "VEC3"
        },
        {
            "bufferView" : 30,
            "componentType" : 5126,
            "count" : 1545,
            "type" : "VEC2"
        },
        {
            "bufferView" : 31,
            "componentType" : 5123,
            "count" : 2502,
            "type" : "SCALAR"
        },
        {
            "bufferView" : 32,
            "componentType" : 5126,
            "count" : 264,
            "max" : [
                -65.1055908203125,
                43.97149658203125,
                -14.125
            ],
            "min" : [
                -65.3555908203125,
                11.47149658203125,
                -98.375
            ],
            "type" : "VEC3"
        },
        {
            "bufferView" : 33,
            "componentType" : 5126,
            "count" : 264,
            "type" : "VEC3"
        },
        {
            "bufferView" : 34,
            "componentType" : 5126,
            "count" : 264,
            "type" : "VEC2"
        },
        {
            "bufferView" : 35,
            "componentType" : 5123,
            "count" : 726,
            "type" : "SCALAR"
        }
    ],
    "bufferViews" : [
        {
            "buffer" : 0,
            "byteLength" : 165540,
            "byteOffset" : 0
        },
        {
            "buffer" : 0,
            "byteLength" : 165540,
            "byteOffset" : 165540
        },
        {
            "buffer" : 0,
            "byteLength" : 110360,
            "byteOffset" : 331080
        },
        {
            "buffer" : 0,
            "byteLength" : 45114,
            "byteOffset" : 441440
        },
        {
            "buffer" : 0,
            "byteLength" : 2964,
            "byteOffset" : 486556
        },
        {
            "buffer" : 0,
            "byteLength" : 2964,
            "byteOffset" : 489520
        },
        {
            "buffer" : 0,
            "byteLength" : 1976,
            "byteOffset" : 492484
        },
        {
            "buffer" : 0,
            "byteLength" : 1188,
            "byteOffset" : 494460
        },
        {
            "buffer" : 0,
            "byteLength" : 300,
            "byteOffset" : 495648
        },
        {
            "buffer" : 0,
            "byteLength" : 300,
            "byteOffset" : 495948
        },
        {
            "buffer" : 0,
            "byteLength" : 200,
            "byteOffset" : 496248
        },
        {
            "buffer" : 0,
            "byteLength" : 138,
            "byteOffset" : 496448
        },
        {
            "buffer" : 0,
            "byteLength" : 384,
            "byteOffset" : 496588
        },
        {
            "buffer" : 0,
            "byteLength" : 384,
            "byteOffset" : 496972
        },
        {
            "buffer" : 0,
            "byteLength" : 256,
            "byteOffset" : 497356
        },
        {
            "buffer" : 0,
            "byteLength" : 96,
            "byteOffset" : 497612
        },
        {
            "buffer" : 0,
            "byteLength" : 240,
            "byteOffset" : 497708
        },
        {
            "buffer" : 0,
            "byteLength" : 240,
            "byteOffset" : 497948
        },
        {
            "buffer" : 0,
            "byteLength" : 160,
            "byteOffset" : 498188
        },
        {
            "buffer" : 0,
            "byteLength" : 60,
            "byteOffset" : 498348
        },
        {
            "buffer" : 0,
            "byteLength" : 223716,
            "byteOffset" : 498408
        },
        {
            "buffer" : 0,
            "byteLength" : 223716,
            "byteOffset" : 722124
        },
        {
            "buffer" : 0,
            "byteLength" : 149144,
            "byteOffset" : 945840
        },
        {
            "buffer" : 0,
            "byteLength" : 77772,
            "byteOffset" : 1094984
        },
        {
            "buffer" : 0,
            "byteLength" : 6864,
            "byteOffset" : 1172756
        },
        {
            "buffer" : 0,
            "byteLength" : 6864,
            "byteOffset" : 1179620
        },
        {
            "buffer" : 0,
            "byteLength" : 4576,
            "byteOffset" : 1186484
        },
        {
            "buffer" : 0,
            "byteLength" : 2868,
            "byteOffset" : 1191060
        },
        {
            "buffer" : 0,
            "byteLength" : 18540,
            "byteOffset" : 1193928
        },
        {
            "buffer" : 0,
            "byteLength" : 18540,
            "byteOffset" : 1212468
        },
        {
            "buffer" : 0,
            "byteLength" : 12360,
            "byteOffset" : 1231008
        },
        {
            "buffer" : 0,
            "byteLength" : 5004,
            "byteOffset" : 1243368
        },
        {
            "buffer" : 0,
            "byteLength" : 3168,
            "byteOffset" : 1248372
        },
        {
            "buffer" : 0,
            "byteLength" : 3168,
            "byteOffset" : 1251540
        },
        {
            "buffer" : 0,
            "byteLength" : 2112,
            "byteOffset" : 1254708
        },
        {
            "buffer" : 0,
            "byteLength" : 1452,
            "byteOffset" : 1256820
        }
    ],
    "buffers" : [
        {
            "byteLength" : 1258272,
            "uri" : "data:application/octet-stream;base64,"
        }
    ]
}
